<?xml version="1.0" encoding="UTF-8"?>
<svg id="Capa_2" data-name="Capa 2" xmlns="http://www.w3.org/2000/svg" viewBox="0 0 916.07 542.89">
  <defs>
    <style>
      .cls-1 {
        fill: #fff;
      }

      .cls-2 {
        fill: #003b49;
      }

      .cls-3 {
        fill: #f84616;
      }
    </style>
  </defs>
  <g id="logo">
    <g>
      <path class="cls-3" d="M13.65,344.28l192.59,162.18c13.41,11.29,32.76,12.05,47.01,1.85l316.07-226.22c11.52-8.24,17.55-22.16,15.69-36.2l-20.04-151.49c-2.16-16.36-14.55-29.5-30.76-32.62L217.01,.69c-8.83-1.7-17.97-.24-25.84,4.11L112.47,48.43c-7.74,4.29-13.76,11.13-17.04,19.36L2.72,300.78c-6.1,15.34-1.7,32.87,10.93,43.5Z"/>
      <g>
        <path class="cls-1" d="M187.56,153.05c-10.73,0-18.93,3.34-24.6,10-5.67,6.67-8.5,15.92-8.5,27.76,0,5.62,.68,10.76,2.03,15.42,1.35,4.66,3.36,8.65,6.02,11.96,2.66,3.31,5.97,5.89,9.93,7.75,3.96,1.86,8.6,2.78,13.92,2.78,3.31,0,6.17-.12,8.57-.38,2.41-.25,4.31-.58,5.72-.98v-37.46h18.95v50.1c-2.61,1-7.02,2.11-13.24,3.31-6.22,1.2-13.39,1.81-21.51,1.81-7.52,0-14.39-1.2-20.61-3.61-6.22-2.41-11.51-5.92-15.87-10.53-4.36-4.61-7.75-10.28-10.15-17-2.41-6.72-3.61-14.44-3.61-23.17s1.33-16.45,3.99-23.17c2.66-6.72,6.29-12.41,10.91-17.07,4.61-4.66,10.03-8.2,16.25-10.61,6.22-2.41,12.84-3.61,19.86-3.61,4.81,0,9.1,.33,12.86,.98,3.76,.65,7,1.38,9.7,2.18,2.71,.8,4.94,1.65,6.69,2.56,1.75,.9,2.98,1.56,3.69,1.96l-5.72,15.5c-3.01-1.81-6.75-3.33-11.21-4.59-4.46-1.25-9.15-1.88-14.07-1.88Z"/>
        <path class="cls-1" d="M230.28,204.05c0-6.92,1.03-12.99,3.08-18.2,2.05-5.21,4.79-9.55,8.2-13.01,3.41-3.46,7.32-6.07,11.73-7.82,4.41-1.75,8.92-2.63,13.54-2.63,10.83,0,19.28,3.36,25.35,10.08,6.07,6.72,9.1,16.75,9.1,30.09,0,1-.03,2.13-.08,3.39-.05,1.26-.13,2.38-.23,3.38h-51.9c.5,6.32,2.73,11.21,6.69,14.67,3.96,3.46,9.7,5.19,17.23,5.19,4.41,0,8.45-.4,12.11-1.2,3.66-.8,6.54-1.65,8.65-2.56l2.41,14.89c-1,.5-2.38,1.03-4.14,1.58-1.76,.55-3.76,1.05-6.02,1.5-2.26,.45-4.69,.83-7.3,1.13-2.61,.3-5.27,.45-7.97,.45-6.92,0-12.94-1.03-18.05-3.08-5.11-2.05-9.33-4.91-12.64-8.57-3.31-3.66-5.77-7.97-7.37-12.94-1.6-4.96-2.41-10.4-2.41-16.32Zm52.8-8.12c0-2.51-.35-4.89-1.05-7.15-.7-2.26-1.73-4.21-3.08-5.87-1.35-1.65-3.01-2.96-4.96-3.91-1.96-.95-4.29-1.43-6.99-1.43s-5.27,.53-7.37,1.58c-2.11,1.05-3.89,2.43-5.34,4.14-1.46,1.71-2.58,3.66-3.39,5.87-.8,2.21-1.35,4.46-1.65,6.77h33.85Z"/>
        <path class="cls-1" d="M385.68,203.6c0,6.22-.9,11.88-2.71,17-1.8,5.11-4.36,9.48-7.67,13.09-3.31,3.61-7.3,6.42-11.96,8.42-4.66,2.01-9.8,3.01-15.42,3.01s-10.73-1-15.34-3.01c-4.61-2-8.57-4.81-11.88-8.42-3.31-3.61-5.89-7.97-7.75-13.09-1.86-5.11-2.78-10.78-2.78-17s.93-11.86,2.78-16.92c1.85-5.06,4.46-9.4,7.82-13.01,3.36-3.61,7.35-6.39,11.96-8.35,4.61-1.96,9.68-2.93,15.19-2.93s10.61,.98,15.27,2.93c4.66,1.96,8.65,4.74,11.96,8.35,3.31,3.61,5.89,7.95,7.75,13.01,1.85,5.07,2.78,10.71,2.78,16.92Zm-18.65,0c0-7.82-1.68-14.01-5.04-18.58-3.36-4.56-8.05-6.84-14.07-6.84s-10.71,2.28-14.07,6.84c-3.36,4.56-5.04,10.76-5.04,18.58s1.68,14.19,5.04,18.8c3.36,4.61,8.05,6.92,14.07,6.92s10.7-2.31,14.07-6.92c3.36-4.61,5.04-10.88,5.04-18.8Z"/>
        <path class="cls-1" d="M430.51,136.51c4.21,0,7.92,.38,11.13,1.13,3.21,.75,5.62,1.43,7.22,2.03l-3.46,15.04c-1.71-.8-3.69-1.45-5.94-1.96-2.26-.5-4.69-.75-7.3-.75-2.91,0-5.37,.43-7.37,1.28-2.01,.85-3.61,2.03-4.81,3.54-1.2,1.5-2.06,3.34-2.56,5.49-.5,2.16-.75,4.49-.75,7v5.27h28.58v15.19h-28.58v53.25h-18.2v-74.01c0-10.13,2.66-18.08,7.97-23.84,5.31-5.77,13.34-8.65,24.07-8.65Z"/>
        <path class="cls-1" d="M478.8,162.38c6.02,0,11.08,.75,15.19,2.26,4.11,1.5,7.39,3.61,9.85,6.32,2.46,2.71,4.21,5.99,5.27,9.85,1.05,3.86,1.58,8.1,1.58,12.71v47.69c-2.81,.6-7.05,1.33-12.71,2.18-5.67,.85-12.06,1.28-19.18,1.28-4.72,0-9.03-.45-12.94-1.35-3.91-.9-7.25-2.36-10-4.36-2.76-2-4.92-4.61-6.47-7.82-1.56-3.21-2.33-7.17-2.33-11.88s.88-8.32,2.63-11.43c1.75-3.11,4.14-5.64,7.15-7.6,3.01-1.96,6.49-3.36,10.46-4.21,3.96-.85,8.1-1.28,12.41-1.28,2,0,4.11,.13,6.32,.38,2.2,.25,4.56,.68,7.07,1.28v-3.01c0-2.11-.25-4.11-.75-6.02-.5-1.9-1.38-3.58-2.63-5.04-1.26-1.45-2.91-2.58-4.96-3.38-2.06-.8-4.64-1.2-7.75-1.2-4.21,0-8.07,.3-11.58,.9-3.51,.6-6.37,1.3-8.58,2.11l-2.26-14.74c2.31-.8,5.67-1.6,10.08-2.41,4.41-.8,9.12-1.2,14.14-1.2Zm1.5,67.85c5.62,0,9.88-.3,12.79-.9v-20.16c-1-.3-2.46-.6-4.36-.9-1.91-.3-4.01-.45-6.32-.45-2.01,0-4.04,.15-6.09,.45-2.06,.3-3.91,.85-5.57,1.65-1.65,.8-2.99,1.93-3.99,3.38-1,1.46-1.5,3.29-1.5,5.49,0,4.31,1.35,7.3,4.06,8.95,2.71,1.65,6.37,2.48,10.98,2.48Z"/>
        <path class="cls-1" d="M551.31,244.52c-5.42-.1-9.91-.7-13.46-1.81-3.56-1.1-6.39-2.68-8.5-4.74-2.11-2.05-3.59-4.61-4.44-7.67-.85-3.06-1.28-6.54-1.28-10.46v-80.32l18.2-3.01v79.87c0,2.21,.17,4.06,.53,5.57,.35,1.5,.98,2.78,1.88,3.84,.9,1.05,2.13,1.86,3.69,2.41,1.55,.55,3.53,.98,5.94,1.28l-2.56,15.04Z"/>
      </g>
    </g>
  </g>
  <g id="nombre">
    <g>
      <g>
        <path class="cls-2" d="M538.32,366.94h6.15v43.93h-6.15v-43.93Z"/>
        <path class="cls-2" d="M554.99,378.86c1.35-.34,3.15-.7,5.39-1.08,2.24-.38,4.82-.57,7.73-.57,2.62,0,4.8,.37,6.53,1.11,1.73,.74,3.12,1.77,4.15,3.11,1.03,1.33,1.76,2.93,2.19,4.78,.42,1.86,.63,3.91,.63,6.15v18.51h-5.9v-17.24c0-2.03-.14-3.76-.41-5.2-.27-1.44-.73-2.6-1.36-3.49-.63-.89-1.48-1.53-2.54-1.93-1.06-.4-2.37-.6-3.93-.6-.63,0-1.29,.02-1.96,.06-.68,.05-1.32,.1-1.93,.16s-1.16,.14-1.65,.22c-.49,.08-.84,.15-1.05,.19v27.83h-5.89v-32.01Z"/>
        <path class="cls-2" d="M612.04,407.57c-.51,.34-1.49,.77-2.95,1.3-1.46,.53-3.16,.79-5.1,.79s-3.86-.32-5.61-.95c-1.75-.63-3.29-1.61-4.6-2.95-1.31-1.33-2.35-2.99-3.11-4.97-.76-1.99-1.14-4.35-1.14-7.1,0-2.41,.36-4.62,1.08-6.62,.72-2.01,1.77-3.74,3.14-5.2,1.37-1.46,3.05-2.6,5.04-3.42,1.98-.82,4.23-1.24,6.72-1.24,2.75,0,5.15,.2,7.2,.6,2.05,.4,3.77,.77,5.16,1.11v29.41c0,5.07-1.31,8.75-3.93,11.03-2.62,2.28-6.59,3.42-11.92,3.42-2.07,0-4.02-.17-5.86-.51-1.84-.34-3.43-.74-4.78-1.21l1.08-5.13c1.18,.47,2.63,.88,4.34,1.24,1.71,.36,3.5,.54,5.36,.54,3.51,0,6.03-.7,7.58-2.09,1.54-1.4,2.31-3.61,2.31-6.66v-1.4Zm-.06-24.47c-.59-.17-1.38-.32-2.38-.48-1-.15-2.34-.22-4.03-.22-3.17,0-5.61,1.04-7.32,3.11-1.71,2.07-2.57,4.82-2.57,8.24,0,1.9,.24,3.53,.73,4.88,.48,1.35,1.14,2.47,1.96,3.36,.82,.89,1.77,1.54,2.85,1.97,1.08,.42,2.19,.63,3.33,.63,1.56,0,3-.22,4.31-.66,1.31-.44,2.35-.96,3.11-1.55v-19.27Z"/>
        <path class="cls-2" d="M626.17,394.45c0-2.91,.42-5.46,1.27-7.64,.85-2.17,1.97-3.98,3.36-5.42,1.39-1.43,3-2.51,4.81-3.23,1.82-.72,3.68-1.08,5.58-1.08,4.44,0,7.84,1.38,10.21,4.15,2.36,2.77,3.55,6.99,3.55,12.65v.98c0,.4-.02,.77-.06,1.11h-22.57c.26,3.42,1.25,6.02,2.98,7.8,1.73,1.78,4.44,2.66,8.11,2.66,2.07,0,3.81-.18,5.23-.54,1.41-.36,2.48-.71,3.2-1.04l.82,4.94c-.72,.38-1.98,.78-3.77,1.2-1.8,.42-3.83,.63-6.12,.63-2.88,0-5.36-.43-7.45-1.3-2.09-.87-3.82-2.06-5.17-3.58-1.35-1.52-2.36-3.33-3.01-5.42-.66-2.09-.98-4.38-.98-6.88Zm22.63-3.23c.04-2.66-.62-4.85-1.99-6.56-1.37-1.71-3.27-2.57-5.68-2.57-1.35,0-2.55,.26-3.58,.79-1.03,.53-1.91,1.22-2.63,2.06-.72,.85-1.28,1.82-1.68,2.92-.4,1.1-.66,2.22-.79,3.36h16.35Z"/>
        <path class="cls-2" d="M663.44,378.86c1.35-.34,3.15-.7,5.39-1.08,2.24-.38,4.82-.57,7.73-.57,2.62,0,4.8,.37,6.53,1.11,1.73,.74,3.12,1.77,4.15,3.11,1.03,1.33,1.76,2.93,2.19,4.78,.42,1.86,.63,3.91,.63,6.15v18.51h-5.9v-17.24c0-2.03-.14-3.76-.41-5.2-.27-1.44-.73-2.6-1.36-3.49-.63-.89-1.48-1.53-2.54-1.93-1.06-.4-2.37-.6-3.93-.6-.63,0-1.29,.02-1.96,.06-.68,.05-1.32,.1-1.93,.16s-1.16,.14-1.65,.22c-.49,.08-.84,.15-1.05,.19v27.83h-5.89v-32.01Z"/>
        <path class="cls-2" d="M702.74,371.95c-1.06,0-1.95-.35-2.69-1.05-.74-.7-1.11-1.64-1.11-2.82s.37-2.12,1.11-2.82c.74-.7,1.64-1.05,2.69-1.05s1.95,.35,2.69,1.05c.74,.7,1.11,1.64,1.11,2.82s-.37,2.12-1.11,2.82-1.64,1.05-2.69,1.05Zm2.98,38.92h-5.89v-32.96h5.89v32.96Z"/>
        <path class="cls-2" d="M714.03,394.45c0-2.91,.42-5.46,1.27-7.64,.85-2.17,1.97-3.98,3.36-5.42,1.39-1.43,3-2.51,4.81-3.23s3.68-1.08,5.58-1.08c4.44,0,7.84,1.38,10.21,4.15,2.36,2.77,3.55,6.99,3.55,12.65v.98c0,.4-.02,.77-.06,1.11h-22.57c.26,3.42,1.25,6.02,2.98,7.8,1.73,1.78,4.44,2.66,8.11,2.66,2.07,0,3.81-.18,5.23-.54,1.41-.36,2.48-.71,3.2-1.04l.82,4.94c-.72,.38-1.98,.78-3.77,1.2-1.8,.42-3.83,.63-6.12,.63-2.88,0-5.36-.43-7.45-1.3-2.09-.87-3.82-2.06-5.17-3.58-1.35-1.52-2.36-3.33-3.01-5.42-.66-2.09-.98-4.38-.98-6.88Zm22.63-3.23c.04-2.66-.62-4.85-1.99-6.56-1.37-1.71-3.27-2.57-5.68-2.57-1.35,0-2.55,.26-3.58,.79-1.03,.53-1.91,1.22-2.63,2.06-.72,.85-1.28,1.82-1.68,2.92-.4,1.1-.66,2.22-.79,3.36h16.35Z"/>
        <path class="cls-2" d="M763.47,377.21c.51,0,1.09,.03,1.74,.1,.65,.06,1.3,.15,1.93,.25,.63,.11,1.22,.21,1.74,.32,.53,.11,.92,.2,1.17,.29l-1.01,5.13c-.47-.17-1.24-.37-2.32-.6-1.08-.23-2.46-.35-4.15-.35-1.1,0-2.19,.12-3.27,.35-1.08,.23-1.78,.39-2.12,.48v27.7h-5.89v-31.57c1.4-.51,3.13-.98,5.2-1.43,2.07-.44,4.4-.66,6.97-.66Z"/>
        <path class="cls-2" d="M786.41,365.42l-8.94,8.68-2.98-2.66,8.11-9.76,3.8,3.74Zm-4.75,45.45h-5.89v-32.96h5.89v32.96Z"/>
        <path class="cls-2" d="M802.45,377.08c2.37,0,4.36,.31,5.99,.92,1.63,.61,2.94,1.48,3.93,2.6,.99,1.12,1.7,2.45,2.12,3.99,.42,1.54,.63,3.24,.63,5.1v20.6c-.51,.09-1.22,.2-2.13,.35-.91,.15-1.93,.29-3.07,.41-1.14,.13-2.38,.24-3.71,.35-1.33,.11-2.65,.16-3.96,.16-1.86,0-3.57-.19-5.13-.57-1.56-.38-2.92-.98-4.06-1.81-1.14-.82-2.03-1.91-2.66-3.26-.63-1.35-.95-2.98-.95-4.88s.37-3.38,1.11-4.69c.74-1.31,1.74-2.36,3.01-3.17,1.27-.8,2.75-1.4,4.44-1.78,1.69-.38,3.46-.57,5.32-.57,.59,0,1.21,.03,1.84,.09,.63,.06,1.24,.15,1.81,.26,.57,.11,1.07,.2,1.49,.28,.42,.09,.72,.15,.89,.19v-1.65c0-.97-.11-1.93-.32-2.88-.21-.95-.59-1.8-1.14-2.54-.55-.74-1.3-1.33-2.25-1.78-.95-.44-2.19-.66-3.71-.66-1.94,0-3.64,.14-5.1,.41-1.46,.28-2.55,.56-3.27,.86l-.7-4.88c.76-.34,2.03-.67,3.8-.98,1.77-.32,3.7-.48,5.77-.48Zm.51,29.54c1.39,0,2.63-.03,3.71-.1,1.08-.06,1.97-.18,2.69-.35v-9.83c-.42-.21-1.11-.39-2.06-.54-.95-.15-2.1-.22-3.45-.22-.89,0-1.83,.07-2.82,.19-.99,.13-1.9,.39-2.72,.79-.82,.4-1.51,.95-2.06,1.65-.55,.7-.82,1.62-.82,2.76,0,2.11,.67,3.58,2.03,4.41,1.35,.82,3.19,1.24,5.52,1.24Z"/>
        <path class="cls-2" d="M534.07,482.58c.47,.21,1.07,.41,1.81,.6,.74,.19,1.47,.29,2.19,.29,2.32,0,4.14-.52,5.45-1.55,1.31-1.03,2.49-2.72,3.55-5.04-2.66-5.07-5.15-10.45-7.45-16.13-2.3-5.68-4.22-11.44-5.74-17.27h6.34c.46,1.9,1.02,3.95,1.68,6.15,.66,2.2,1.39,4.46,2.19,6.78,.8,2.32,1.67,4.65,2.6,6.97,.93,2.32,1.9,4.57,2.91,6.72,1.61-4.44,3-8.83,4.18-13.18,1.18-4.35,2.3-8.83,3.36-13.44h6.08c-1.52,6.21-3.21,12.18-5.07,17.91-1.86,5.73-3.87,11.08-6.02,16.07-.85,1.9-1.72,3.54-2.63,4.91-.91,1.37-1.91,2.5-3.01,3.39-1.1,.89-2.34,1.54-3.71,1.97-1.37,.42-2.93,.63-4.66,.63-.46,0-.95-.03-1.46-.09-.51-.06-1-.15-1.49-.25-.48-.11-.93-.22-1.33-.35-.4-.13-.69-.23-.86-.32l1.08-4.75Z"/>
        <path class="cls-2" d="M593.97,477.07c-3.63-.09-6.21-.87-7.73-2.35-1.52-1.48-2.28-3.78-2.28-6.91v-39.56l5.89-1.01v39.62c0,.97,.08,1.78,.25,2.41,.17,.63,.45,1.14,.82,1.52s.89,.66,1.52,.86c.63,.19,1.42,.35,2.35,.48l-.82,4.94Z"/>
        <path class="cls-2" d="M612.04,442.65c2.37,0,4.36,.31,5.99,.92,1.63,.61,2.94,1.48,3.93,2.6,.99,1.12,1.7,2.45,2.12,3.99,.42,1.54,.63,3.24,.63,5.1v20.6c-.51,.09-1.22,.2-2.13,.35-.91,.15-1.93,.29-3.07,.41-1.14,.13-2.38,.24-3.71,.35-1.33,.11-2.65,.16-3.96,.16-1.86,0-3.57-.19-5.13-.57-1.56-.38-2.92-.98-4.06-1.81-1.14-.82-2.03-1.91-2.66-3.26-.63-1.35-.95-2.98-.95-4.88s.37-3.38,1.11-4.69c.74-1.31,1.74-2.36,3.01-3.17,1.27-.8,2.75-1.4,4.44-1.78,1.69-.38,3.46-.57,5.32-.57,.59,0,1.21,.03,1.84,.09,.63,.06,1.24,.15,1.81,.26,.57,.11,1.07,.2,1.49,.28,.42,.09,.72,.15,.89,.19v-1.65c0-.97-.11-1.93-.32-2.88-.21-.95-.59-1.8-1.14-2.54-.55-.74-1.3-1.33-2.25-1.78-.95-.44-2.19-.66-3.71-.66-1.94,0-3.64,.14-5.1,.41-1.46,.28-2.55,.56-3.27,.86l-.7-4.88c.76-.34,2.03-.67,3.8-.98,1.77-.32,3.7-.48,5.77-.48Zm.51,29.54c1.39,0,2.63-.03,3.71-.1,1.08-.06,1.97-.18,2.69-.35v-9.83c-.42-.21-1.11-.39-2.06-.54-.95-.15-2.1-.22-3.45-.22-.89,0-1.83,.07-2.82,.19s-1.9,.39-2.72,.79c-.82,.4-1.51,.95-2.06,1.65-.55,.7-.82,1.62-.82,2.76,0,2.11,.67,3.58,2.03,4.41,1.35,.82,3.19,1.24,5.52,1.24Z"/>
        <path class="cls-2" d="M640.37,444.93c.72-.47,1.81-.95,3.27-1.46,1.46-.51,3.14-.76,5.04-.76,2.37,0,4.47,.42,6.31,1.27,1.84,.85,3.39,2.03,4.66,3.55,1.27,1.52,2.23,3.34,2.88,5.45,.65,2.11,.98,4.44,.98,6.97,0,2.66-.39,5.06-1.17,7.19-.78,2.14-1.89,3.94-3.33,5.42-1.44,1.48-3.17,2.62-5.2,3.42-2.03,.8-4.31,1.21-6.85,1.21-2.75,0-5.18-.19-7.29-.57-2.11-.38-3.84-.76-5.2-1.14v-47.23l5.89-1.01v17.69Zm0,26.37c.59,.17,1.43,.33,2.51,.48,1.08,.15,2.42,.22,4.02,.22,3.17,0,5.71-1.05,7.61-3.14,1.9-2.09,2.85-5.06,2.85-8.91,0-1.69-.17-3.28-.51-4.75-.34-1.48-.89-2.76-1.65-3.83s-1.74-1.92-2.95-2.54c-1.2-.61-2.65-.92-4.34-.92s-3.08,.28-4.44,.82c-1.35,.55-2.39,1.12-3.11,1.71v20.86Z"/>
        <path class="cls-2" d="M700.91,459.95c0,2.62-.38,4.99-1.14,7.1-.76,2.11-1.83,3.93-3.2,5.45-1.37,1.52-3.01,2.69-4.91,3.52-1.9,.82-3.97,1.24-6.21,1.24s-4.31-.41-6.21-1.24c-1.9-.82-3.54-2-4.91-3.52-1.37-1.52-2.44-3.34-3.2-5.45-.76-2.11-1.14-4.48-1.14-7.1s.38-4.93,1.14-7.07c.76-2.13,1.83-3.96,3.2-5.48,1.37-1.52,3.01-2.69,4.91-3.52,1.9-.82,3.97-1.24,6.21-1.24s4.31,.41,6.21,1.24c1.9,.82,3.54,2,4.91,3.52,1.37,1.52,2.44,3.35,3.2,5.48,.76,2.14,1.14,4.49,1.14,7.07Zm-6.15,0c0-3.72-.84-6.66-2.5-8.84-1.67-2.18-3.94-3.27-6.81-3.27s-5.15,1.09-6.81,3.27c-1.67,2.18-2.51,5.12-2.51,8.84s.84,6.67,2.51,8.84c1.67,2.18,3.94,3.27,6.81,3.27s5.14-1.09,6.81-3.27c1.67-2.17,2.5-5.12,2.5-8.84Z"/>
        <path class="cls-2" d="M721.38,442.77c.51,0,1.09,.03,1.74,.1,.65,.06,1.3,.15,1.93,.25,.63,.11,1.22,.21,1.74,.32,.53,.11,.92,.2,1.17,.29l-1.01,5.13c-.47-.17-1.24-.37-2.32-.6-1.08-.23-2.46-.35-4.15-.35-1.1,0-2.19,.12-3.27,.35-1.08,.23-1.78,.39-2.12,.48v27.7h-5.89v-31.57c1.4-.51,3.13-.98,5.2-1.43,2.07-.44,4.4-.66,6.97-.66Z"/>
        <path class="cls-2" d="M744.32,442.65c2.37,0,4.36,.31,5.99,.92,1.63,.61,2.94,1.48,3.93,2.6,.99,1.12,1.7,2.45,2.12,3.99,.42,1.54,.63,3.24,.63,5.1v20.6c-.51,.09-1.22,.2-2.13,.35-.91,.15-1.93,.29-3.07,.41-1.14,.13-2.38,.24-3.71,.35-1.33,.11-2.65,.16-3.96,.16-1.86,0-3.57-.19-5.13-.57-1.56-.38-2.92-.98-4.06-1.81-1.14-.82-2.03-1.91-2.66-3.26-.63-1.35-.95-2.98-.95-4.88s.37-3.38,1.11-4.69c.74-1.31,1.74-2.36,3.01-3.17,1.27-.8,2.75-1.4,4.44-1.78,1.69-.38,3.46-.57,5.32-.57,.59,0,1.21,.03,1.84,.09,.63,.06,1.24,.15,1.81,.26,.57,.11,1.07,.2,1.49,.28,.42,.09,.72,.15,.89,.19v-1.65c0-.97-.11-1.93-.32-2.88-.21-.95-.59-1.8-1.14-2.54-.55-.74-1.3-1.33-2.25-1.78-.95-.44-2.19-.66-3.71-.66-1.94,0-3.64,.14-5.1,.41-1.46,.28-2.55,.56-3.27,.86l-.7-4.88c.76-.34,2.03-.67,3.8-.98,1.77-.32,3.7-.48,5.77-.48Zm.51,29.54c1.39,0,2.63-.03,3.71-.1,1.08-.06,1.97-.18,2.69-.35v-9.83c-.42-.21-1.11-.39-2.06-.54-.95-.15-2.1-.22-3.45-.22-.89,0-1.83,.07-2.82,.19s-1.9,.39-2.72,.79c-.82,.4-1.51,.95-2.06,1.65-.55,.7-.82,1.62-.82,2.76,0,2.11,.67,3.58,2.03,4.41s3.19,1.24,5.52,1.24Z"/>
        <path class="cls-2" d="M772.28,443.47h12.49v4.94h-12.49v15.21c0,1.65,.13,3.01,.38,4.09,.26,1.08,.63,1.92,1.14,2.54,.51,.61,1.14,1.05,1.9,1.3,.76,.25,1.65,.38,2.66,.38,1.77,0,3.2-.2,4.28-.6,1.08-.4,1.83-.69,2.25-.85l1.14,4.88c-.59,.29-1.63,.66-3.11,1.11-1.48,.44-3.17,.66-5.07,.66-2.24,0-4.09-.29-5.55-.86-1.46-.57-2.63-1.43-3.52-2.57-.89-1.14-1.51-2.55-1.87-4.22-.36-1.67-.54-3.6-.54-5.8v-29.41l5.89-1.01v10.2Z"/>
        <path class="cls-2" d="M820.45,459.95c0,2.62-.38,4.99-1.14,7.1-.76,2.11-1.83,3.93-3.2,5.45-1.37,1.52-3.01,2.69-4.91,3.52-1.9,.82-3.97,1.24-6.21,1.24s-4.31-.41-6.21-1.24c-1.9-.82-3.54-2-4.91-3.52-1.37-1.52-2.44-3.34-3.2-5.45-.76-2.11-1.14-4.48-1.14-7.1s.38-4.93,1.14-7.07c.76-2.13,1.83-3.96,3.2-5.48,1.37-1.52,3.01-2.69,4.91-3.52,1.9-.82,3.97-1.24,6.21-1.24s4.31,.41,6.21,1.24c1.9,.82,3.54,2,4.91,3.52,1.37,1.52,2.44,3.35,3.2,5.48,.76,2.14,1.14,4.49,1.14,7.07Zm-6.15,0c0-3.72-.84-6.66-2.5-8.84-1.67-2.18-3.94-3.27-6.81-3.27s-5.15,1.09-6.81,3.27c-1.67,2.18-2.51,5.12-2.51,8.84s.84,6.67,2.51,8.84c1.67,2.18,3.94,3.27,6.81,3.27s5.14-1.09,6.81-3.27c1.67-2.17,2.5-5.12,2.5-8.84Z"/>
        <path class="cls-2" d="M840.93,442.77c.51,0,1.09,.03,1.74,.1,.65,.06,1.3,.15,1.93,.25,.63,.11,1.22,.21,1.74,.32,.53,.11,.92,.2,1.17,.29l-1.01,5.13c-.47-.17-1.24-.37-2.32-.6-1.08-.23-2.46-.35-4.15-.35-1.1,0-2.19,.12-3.27,.35-1.08,.23-1.78,.39-2.12,.48v27.7h-5.89v-31.57c1.4-.51,3.13-.98,5.2-1.43,2.07-.44,4.4-.66,6.97-.66Z"/>
        <path class="cls-2" d="M856.14,437.51c-1.06,0-1.95-.35-2.69-1.05s-1.11-1.64-1.11-2.82,.37-2.12,1.11-2.82c.74-.7,1.64-1.05,2.69-1.05s1.95,.35,2.69,1.05c.74,.7,1.11,1.64,1.11,2.82s-.37,2.12-1.11,2.82c-.74,.7-1.64,1.05-2.69,1.05Zm2.98,38.92h-5.89v-32.96h5.89v32.96Z"/>
        <path class="cls-2" d="M898.35,459.95c0,2.62-.38,4.99-1.14,7.1-.76,2.11-1.83,3.93-3.2,5.45-1.37,1.52-3.01,2.69-4.91,3.52-1.9,.82-3.97,1.24-6.21,1.24s-4.31-.41-6.21-1.24c-1.9-.82-3.54-2-4.91-3.52-1.37-1.52-2.44-3.34-3.2-5.45-.76-2.11-1.14-4.48-1.14-7.1s.38-4.93,1.14-7.07c.76-2.13,1.83-3.96,3.2-5.48,1.37-1.52,3.01-2.69,4.91-3.52,1.9-.82,3.97-1.24,6.21-1.24s4.31,.41,6.21,1.24c1.9,.82,3.54,2,4.91,3.52,1.37,1.52,2.44,3.35,3.2,5.48,.76,2.14,1.14,4.49,1.14,7.07Zm-6.15,0c0-3.72-.84-6.66-2.5-8.84-1.67-2.18-3.94-3.27-6.81-3.27s-5.15,1.09-6.81,3.27-2.51,5.12-2.51,8.84,.84,6.67,2.51,8.84c1.67,2.18,3.94,3.27,6.81,3.27s5.14-1.09,6.81-3.27c1.67-2.17,2.5-5.12,2.5-8.84Z"/>
        <path class="cls-2" d="M559.24,493.82l5.89-1.01v48.24c-1.35,.38-3.09,.76-5.2,1.14-2.11,.38-4.54,.57-7.29,.57-2.54,0-4.82-.4-6.84-1.21-2.03-.8-3.76-1.94-5.2-3.42-1.43-1.48-2.54-3.28-3.33-5.42-.78-2.13-1.17-4.53-1.17-7.19s.33-4.86,.98-6.97c.65-2.11,1.61-3.93,2.88-5.45,1.27-1.52,2.82-2.7,4.66-3.55,1.84-.85,3.94-1.27,6.31-1.27,1.9,0,3.58,.25,5.04,.76,1.46,.51,2.54,.99,3.26,1.46v-16.67Zm0,22.19c-.72-.59-1.75-1.16-3.11-1.71-1.35-.55-2.83-.82-4.44-.82-1.69,0-3.14,.31-4.34,.92-1.2,.61-2.19,1.46-2.95,2.54-.76,1.08-1.31,2.36-1.65,3.83-.34,1.48-.51,3.06-.51,4.75,0,3.85,.95,6.81,2.85,8.91,1.9,2.09,4.44,3.14,7.61,3.14,1.61,0,2.95-.08,4.03-.22,1.08-.15,1.91-.31,2.5-.48v-20.86Z"/>
        <path class="cls-2" d="M573.43,525.58c0-2.91,.42-5.46,1.27-7.64,.85-2.17,1.97-3.98,3.36-5.42,1.39-1.43,3-2.51,4.81-3.23,1.82-.72,3.68-1.08,5.58-1.08,4.44,0,7.84,1.38,10.21,4.15,2.36,2.77,3.55,6.99,3.55,12.65v.98c0,.4-.02,.77-.06,1.11h-22.57c.26,3.42,1.25,6.02,2.98,7.8,1.73,1.78,4.44,2.66,8.11,2.66,2.07,0,3.81-.18,5.23-.54,1.41-.36,2.48-.71,3.2-1.04l.82,4.94c-.72,.38-1.98,.78-3.77,1.2-1.8,.42-3.83,.63-6.12,.63-2.88,0-5.36-.43-7.45-1.3-2.09-.87-3.82-2.06-5.17-3.58-1.35-1.52-2.36-3.33-3.01-5.42-.66-2.09-.98-4.38-.98-6.88Zm22.63-3.23c.04-2.66-.62-4.85-1.99-6.56-1.37-1.71-3.27-2.57-5.68-2.57-1.35,0-2.55,.26-3.58,.79-1.03,.53-1.91,1.22-2.63,2.06-.72,.85-1.28,1.82-1.68,2.92-.4,1.1-.66,2.22-.79,3.36h16.35Z"/>
      </g>
      <g>
        <path class="cls-2" d="M622.38,510.27c1.35-.34,3.12-.69,5.33-1.07s4.76-.57,7.67-.57c2.1,0,3.87,.28,5.3,.85s2.63,1.4,3.6,2.49c.29-.21,.76-.51,1.39-.88,.63-.38,1.41-.75,2.34-1.1,.92-.36,1.96-.67,3.09-.95,1.14-.27,2.36-.41,3.66-.41,2.52,0,4.58,.37,6.18,1.1,1.6,.74,2.85,1.78,3.75,3.12,.9,1.35,1.52,2.94,1.83,4.8,.32,1.85,.47,3.87,.47,6.06v18.43h-5.87v-17.16c0-1.94-.1-3.6-.28-4.99-.19-1.39-.55-2.54-1.07-3.47-.53-.92-1.24-1.61-2.14-2.05-.91-.44-2.07-.66-3.5-.66-1.98,0-3.61,.26-4.89,.79-1.28,.53-2.16,1-2.62,1.42,.34,1.1,.59,2.29,.76,3.6,.17,1.3,.25,2.67,.25,4.1v18.43h-5.87v-17.16c0-1.94-.11-3.6-.32-4.99-.21-1.39-.58-2.54-1.1-3.47-.53-.92-1.24-1.61-2.14-2.05-.91-.44-2.05-.66-3.44-.66-.59,0-1.22,.02-1.89,.06s-1.31,.09-1.92,.16c-.61,.06-1.17,.14-1.67,.22-.5,.08-.84,.15-1.01,.19v27.7h-5.87v-31.87Z"/>
        <path class="cls-2" d="M687.32,508.5c2.36,0,4.34,.31,5.96,.92,1.62,.61,2.92,1.47,3.91,2.59,.99,1.12,1.69,2.44,2.11,3.98,.42,1.54,.63,3.23,.63,5.08v20.51c-.51,.08-1.21,.2-2.11,.35-.91,.15-1.92,.28-3.06,.41-1.14,.13-2.37,.24-3.69,.35-1.33,.1-2.64,.16-3.94,.16-1.85,0-3.56-.19-5.11-.57-1.56-.38-2.9-.98-4.04-1.8-1.14-.82-2.02-1.9-2.65-3.25-.63-1.35-.95-2.97-.95-4.86s.37-3.37,1.1-4.67c.74-1.3,1.74-2.35,3-3.15,1.26-.8,2.73-1.39,4.42-1.77,1.68-.38,3.45-.57,5.3-.57,.59,0,1.2,.03,1.83,.1,.63,.06,1.23,.15,1.8,.25s1.06,.2,1.48,.28c.42,.09,.71,.15,.88,.19v-1.64c0-.97-.11-1.92-.32-2.87-.21-.95-.59-1.79-1.14-2.53-.55-.74-1.29-1.33-2.24-1.77-.95-.44-2.18-.66-3.69-.66-1.94,0-3.63,.14-5.08,.41-1.45,.28-2.53,.56-3.25,.85l-.69-4.86c.76-.34,2.02-.66,3.79-.98,1.77-.32,3.68-.47,5.74-.47Zm.51,29.41c1.39,0,2.62-.03,3.69-.1,1.07-.06,1.97-.18,2.68-.35v-9.78c-.42-.21-1.1-.39-2.05-.54-.95-.15-2.09-.22-3.44-.22-.88,0-1.82,.06-2.81,.19-.99,.13-1.89,.39-2.71,.79-.82,.4-1.51,.95-2.05,1.64-.55,.69-.82,1.61-.82,2.75,0,2.1,.67,3.57,2.02,4.39,1.35,.82,3.18,1.23,5.49,1.23Z"/>
        <path class="cls-2" d="M715.15,509.32h12.43v4.92h-12.43v15.14c0,1.64,.13,3,.38,4.07s.63,1.92,1.14,2.52c.51,.61,1.14,1.04,1.89,1.29,.76,.25,1.64,.38,2.65,.38,1.77,0,3.19-.2,4.26-.6,1.07-.4,1.82-.68,2.24-.85l1.14,4.86c-.59,.3-1.62,.66-3.09,1.1-1.47,.44-3.16,.66-5.05,.66-2.23,0-4.07-.28-5.52-.85-1.45-.57-2.62-1.42-3.5-2.55-.88-1.14-1.51-2.53-1.86-4.2-.36-1.66-.54-3.59-.54-5.77v-29.28l5.87-1.01v10.16Z"/>
        <path class="cls-2" d="M732.56,525.79c0-2.9,.42-5.44,1.26-7.6,.84-2.17,1.96-3.96,3.35-5.4,1.39-1.43,2.99-2.5,4.8-3.22,1.81-.71,3.66-1.07,5.55-1.07,4.42,0,7.8,1.38,10.16,4.13,2.36,2.76,3.53,6.95,3.53,12.59v.98c0,.4-.02,.77-.06,1.1h-22.47c.25,3.41,1.24,6,2.96,7.76,1.73,1.77,4.42,2.65,8.08,2.65,2.06,0,3.8-.18,5.21-.54,1.41-.36,2.47-.7,3.19-1.04l.82,4.92c-.71,.38-1.97,.78-3.75,1.2-1.79,.42-3.82,.63-6.09,.63-2.86,0-5.33-.43-7.41-1.29-2.08-.86-3.8-2.05-5.14-3.57-1.35-1.51-2.35-3.31-3-5.39-.65-2.08-.98-4.37-.98-6.85Zm22.53-3.22c.04-2.65-.62-4.83-1.99-6.53s-3.25-2.55-5.65-2.55c-1.35,0-2.53,.26-3.57,.79-1.03,.53-1.9,1.21-2.62,2.05s-1.27,1.81-1.67,2.9c-.4,1.1-.66,2.21-.79,3.35h16.28Z"/>
        <path class="cls-2" d="M781.79,508.63c.51,0,1.08,.03,1.74,.1,.65,.06,1.29,.15,1.93,.25,.63,.1,1.21,.21,1.74,.32,.53,.1,.92,.2,1.17,.28l-1.01,5.11c-.46-.17-1.23-.37-2.3-.6-1.07-.23-2.45-.35-4.13-.35-1.09,0-2.18,.12-3.25,.35-1.07,.23-1.78,.39-2.11,.47v27.58h-5.87v-31.43c1.39-.51,3.11-.98,5.17-1.42,2.06-.44,4.38-.66,6.94-.66Z"/>
        <path class="cls-2" d="M796.93,503.39c-1.05,0-1.95-.35-2.68-1.04-.74-.69-1.1-1.63-1.1-2.81s.37-2.11,1.1-2.81c.74-.69,1.63-1.04,2.68-1.04s1.95,.35,2.68,1.04c.74,.69,1.1,1.63,1.1,2.81s-.37,2.11-1.1,2.81c-.74,.69-1.63,1.04-2.68,1.04Zm2.97,38.75h-5.87v-32.81h5.87v32.81Z"/>
        <path class="cls-2" d="M820.59,508.5c2.36,0,4.34,.31,5.96,.92,1.62,.61,2.92,1.47,3.91,2.59,.99,1.12,1.69,2.44,2.11,3.98,.42,1.54,.63,3.23,.63,5.08v20.51c-.51,.08-1.21,.2-2.11,.35-.91,.15-1.92,.28-3.06,.41-1.14,.13-2.37,.24-3.69,.35-1.33,.1-2.64,.16-3.94,.16-1.85,0-3.56-.19-5.11-.57-1.56-.38-2.9-.98-4.04-1.8-1.14-.82-2.02-1.9-2.65-3.25-.63-1.35-.95-2.97-.95-4.86s.37-3.37,1.1-4.67c.74-1.3,1.74-2.35,3-3.15,1.26-.8,2.73-1.39,4.42-1.77,1.68-.38,3.45-.57,5.3-.57,.59,0,1.2,.03,1.83,.1,.63,.06,1.23,.15,1.8,.25s1.06,.2,1.48,.28c.42,.09,.71,.15,.88,.19v-1.64c0-.97-.11-1.92-.32-2.87-.21-.95-.59-1.79-1.14-2.53-.55-.74-1.29-1.33-2.24-1.77-.95-.44-2.18-.66-3.69-.66-1.94,0-3.63,.14-5.08,.41-1.45,.28-2.53,.56-3.25,.85l-.69-4.86c.76-.34,2.02-.66,3.79-.98,1.77-.32,3.68-.47,5.74-.47Zm.51,29.41c1.39,0,2.62-.03,3.69-.1,1.07-.06,1.97-.18,2.68-.35v-9.78c-.42-.21-1.1-.39-2.05-.54-.95-.15-2.09-.22-3.44-.22-.88,0-1.82,.06-2.81,.19-.99,.13-1.89,.39-2.71,.79-.82,.4-1.51,.95-2.05,1.64-.55,.69-.82,1.61-.82,2.75,0,2.1,.67,3.57,2.02,4.39,1.35,.82,3.18,1.23,5.49,1.23Z"/>
        <path class="cls-2" d="M852.78,542.77c-3.62-.08-6.18-.86-7.7-2.33-1.51-1.47-2.27-3.76-2.27-6.88v-39.38l5.87-1.01v39.44c0,.97,.08,1.77,.25,2.4,.17,.63,.44,1.14,.82,1.51s.88,.66,1.51,.85,1.41,.35,2.33,.47l-.82,4.92Z"/>
        <path class="cls-2" d="M858.33,525.79c0-2.9,.42-5.44,1.26-7.6,.84-2.17,1.96-3.96,3.35-5.4,1.39-1.43,2.99-2.5,4.8-3.22,1.81-.71,3.66-1.07,5.55-1.07,4.42,0,7.8,1.38,10.16,4.13,2.36,2.76,3.53,6.95,3.53,12.59v.98c0,.4-.02,.77-.06,1.1h-22.47c.25,3.41,1.24,6,2.96,7.76,1.73,1.77,4.42,2.65,8.08,2.65,2.06,0,3.8-.18,5.21-.54,1.41-.36,2.47-.7,3.19-1.04l.82,4.92c-.71,.38-1.97,.78-3.75,1.2-1.79,.42-3.82,.63-6.09,.63-2.86,0-5.33-.43-7.41-1.29-2.08-.86-3.8-2.05-5.14-3.57-1.35-1.51-2.35-3.31-3-5.39-.65-2.08-.98-4.37-.98-6.85Zm22.53-3.22c.04-2.65-.62-4.83-1.99-6.53s-3.25-2.55-5.65-2.55c-1.35,0-2.53,.26-3.57,.79-1.03,.53-1.9,1.21-2.62,2.05s-1.27,1.81-1.67,2.9c-.4,1.1-.66,2.21-.79,3.35h16.28Z"/>
        <path class="cls-2" d="M903.07,537.91c2.4,0,4.18-.32,5.33-.95,1.16-.63,1.74-1.64,1.74-3.03s-.57-2.56-1.7-3.41c-1.14-.84-3.01-1.79-5.62-2.84-1.26-.5-2.47-1.02-3.63-1.55-1.16-.53-2.16-1.15-3-1.86-.84-.71-1.51-1.58-2.02-2.59-.51-1.01-.76-2.25-.76-3.72,0-2.9,1.07-5.21,3.22-6.91,2.15-1.7,5.07-2.56,8.77-2.56,.92,0,1.85,.05,2.78,.16,.93,.11,1.79,.23,2.59,.38,.8,.15,1.5,.31,2.11,.47,.61,.17,1.08,.31,1.42,.44l-1.07,5.05c-.63-.34-1.62-.68-2.96-1.04-1.35-.36-2.97-.54-4.86-.54-1.64,0-3.07,.33-4.29,.98s-1.83,1.67-1.83,3.06c0,.72,.14,1.35,.41,1.89,.27,.55,.69,1.04,1.26,1.48s1.27,.85,2.11,1.23,1.85,.78,3.03,1.2c1.56,.59,2.94,1.17,4.17,1.74,1.22,.57,2.26,1.23,3.12,1.99s1.52,1.67,1.99,2.74c.46,1.07,.69,2.39,.69,3.94,0,3.03-1.12,5.32-3.38,6.88-2.25,1.56-5.46,2.33-9.62,2.33-2.9,0-5.17-.24-6.82-.73-1.64-.48-2.76-.85-3.35-1.1l1.07-5.05c.67,.25,1.75,.63,3.22,1.14,1.47,.5,3.43,.76,5.87,.76Z"/>
      </g>
    </g>
  </g>
</svg>